<?xml version="1.0" encoding="UTF-8"?>
<svg version="1.1" xmlns="http://www.w3.org/2000/svg" width="60" height="60">
<path d="M0 0 C6.8750606 3.83879843 11.23575458 9.71197337 14.16015625 16.98828125 C16.68262166 26.31094145 15.63109363 35.69609016 11.0078125 44.12109375 C6.89223801 50.82795587 -0.5200095 55.11006313 -7.9921875 57.12109375 C-17.51093787 58.12585073 -24.9704307 57.47413379 -32.9921875 52.12109375 C-33.8996875 51.56421875 -34.8071875 51.00734375 -35.7421875 50.43359375 C-42.8649265 43.11300089 -45.30765127 35.33770277 -45.38378906 25.3894043 C-45.26591651 19.0106305 -43.59106885 14.41973831 -39.9921875 9.12109375 C-39.4353125 8.21359375 -38.8784375 7.30609375 -38.3046875 6.37109375 C-27.95828618 -3.6956751 -13.08125841 -6.23842192 0 0 Z " fill="#E5E3E3" transform="translate(44.9921875,2.87890625)"/>
<path d="M0 0 C0.70189453 0.00451172 1.40378906 0.00902344 2.12695312 0.01367188 C3.85550538 0.02543073 5.58401365 0.04336546 7.3125 0.0625 C6.3225 2.0425 5.3325 4.0225 4.3125 6.0625 C2.3325 6.0625 0.3525 6.0625 -1.6875 6.0625 C-1.584375 6.990625 -1.48125 7.91875 -1.375 8.875 C-1.478125 9.926875 -1.58125 10.97875 -1.6875 12.0625 C-4.1875 13.8125 -4.1875 13.8125 -6.6875 15.0625 C-6.6875 15.7225 -6.6875 16.3825 -6.6875 17.0625 C-6.0275 17.3925 -5.3675 17.7225 -4.6875 18.0625 C-5.0175 19.3825 -5.3475 20.7025 -5.6875 22.0625 C-7.0075 21.4025 -8.3275 20.7425 -9.6875 20.0625 C-10.0175 20.7225 -10.3475 21.3825 -10.6875 22.0625 C-11.0175 21.7325 -11.3475 21.4025 -11.6875 21.0625 C-15.71910191 20.79956944 -17.24642734 20.76845156 -20.6875 23.0625 C-22.0075 23.0625 -23.3275 23.0625 -24.6875 23.0625 C-24.6875 22.4025 -24.6875 21.7425 -24.6875 21.0625 C-25.6775 20.7325 -26.6675 20.4025 -27.6875 20.0625 C-27.12387698 22.11086882 -27.12387698 22.11086882 -25.6875 24.0625 C-22.62841587 24.87834568 -22.62841587 24.87834568 -19.6875 25.0625 C-21.0075 25.3925 -22.3275 25.7225 -23.6875 26.0625 C-23.0275 27.7125 -22.3675 29.3625 -21.6875 31.0625 C-19.7075 30.7325 -17.7275 30.4025 -15.6875 30.0625 C-17.3375 29.7325 -18.9875 29.4025 -20.6875 29.0625 C-20.3575 28.4025 -20.0275 27.7425 -19.6875 27.0625 C-18.6975 27.3925 -17.7075 27.7225 -16.6875 28.0625 C-16.6875 27.0725 -16.6875 26.0825 -16.6875 25.0625 C-14.3775 25.0625 -12.0675 25.0625 -9.6875 25.0625 C-11.0075 25.3925 -12.3275 25.7225 -13.6875 26.0625 C-13.6875 27.7125 -13.6875 29.3625 -13.6875 31.0625 C-12.4190625 30.815 -12.4190625 30.815 -11.125 30.5625 C-7.56441942 30.04459737 -4.27979707 29.85525209 -0.6875 30.0625 C-0.0275 30.7225 0.6325 31.3825 1.3125 32.0625 C-0.0075 32.0625 -1.3275 32.0625 -2.6875 32.0625 C-3.0175 32.7225 -3.3475 33.3825 -3.6875 34.0625 C-3.6875 33.4025 -3.6875 32.7425 -3.6875 32.0625 C-6.73198707 32.56991451 -9.77478053 33.07821049 -12.8125 33.625 C-15.6875 34.0625 -15.6875 34.0625 -19.6875 34.0625 C-19.6875 34.7225 -19.6875 35.3825 -19.6875 36.0625 C-18.98882812 35.97871094 -18.29015625 35.89492188 -17.5703125 35.80859375 C-16.20519531 35.65583984 -16.20519531 35.65583984 -14.8125 35.5 C-13.45511719 35.34337891 -13.45511719 35.34337891 -12.0703125 35.18359375 C-9.6875 35.0625 -9.6875 35.0625 -7.6875 36.0625 C-7.6875 37.3825 -7.6875 38.7025 -7.6875 40.0625 C-10.08524745 40.19822155 -12.47525245 40.29686868 -14.875 40.375 C-15.88530273 40.4378418 -15.88530273 40.4378418 -16.91601562 40.50195312 C-20.80191899 40.59673126 -22.47353136 40.23209861 -25.55078125 37.79296875 C-29.07302053 33.29197194 -30.19596844 30.24572098 -30.07421875 24.5703125 C-29.09606856 18.22715675 -25.2507504 11.50241931 -20.6875 7.0625 C-13.65557793 2.32813663 -8.53714877 -0.10362552 0 0 Z " fill="#FEFAF8" transform="translate(29.6875,-0.0625)"/>
<path d="M0 0 C0.99 0.495 0.99 0.495 2 1 C3.57206643 1.11840113 5.14883269 1.17703033 6.72509766 1.20532227 C7.70596344 1.22526749 8.68682922 1.24521271 9.69741821 1.26576233 C10.75891083 1.28247482 11.82040344 1.29918732 12.9140625 1.31640625 C14.54122696 1.3475779 14.54122696 1.3475779 16.20126343 1.37937927 C19.67577621 1.44490634 23.15036624 1.50377447 26.625 1.5625 C28.97657058 1.60568221 31.32813326 1.6492964 33.6796875 1.69335938 C39.4530427 1.80059093 45.2264752 1.90235144 51 2 C48.89756662 5.66569493 47.26049954 7.88572309 43.6875 10.1875 C42.94886719 10.67605469 42.21023437 11.16460937 41.44921875 11.66796875 C33.96164201 15.74015961 26.34571067 15.85530575 18 15 C10.88767083 12.693547 4.0563951 8.40483436 0 2 C0 1.34 0 0.68 0 0 Z " fill="#FEFEFE" transform="translate(4,45)"/>
<path d="M0 0 C4 4.75 4 4.75 4 7 C6.96892711 7.98964237 9.01149908 8.15273727 12.11401367 8.20532227 C13.67529243 8.2352401 13.67529243 8.2352401 15.26811218 8.26576233 C16.39006485 8.28247482 17.51201752 8.29918732 18.66796875 8.31640625 C19.81791824 8.33718735 20.96786774 8.35796844 22.15266418 8.37937927 C25.83088125 8.44483342 29.50917048 8.50374074 33.1875 8.5625 C35.67904396 8.60568913 38.17058059 8.64930355 40.66210938 8.69335938 C46.77466301 8.80051061 52.88728864 8.90228483 59 9 C58.01 11.31 57.02 13.62 56 16 C48.95259884 16.10137004 41.90538548 16.17145284 34.85742188 16.21972656 C32.45956394 16.23984936 30.06175512 16.26715059 27.6640625 16.30175781 C24.21862677 16.3502449 20.77383948 16.37296241 17.328125 16.390625 C15.71855927 16.42159271 15.71855927 16.42159271 14.07647705 16.45318604 C12.57537384 16.45363922 12.57537384 16.45363922 11.04394531 16.45410156 C10.16458313 16.46298401 9.28522095 16.47186646 8.37921143 16.48101807 C5.20975801 15.84023249 4.03968055 14.44842171 2 12 C-0.1751684 7.97593845 -0.17737756 4.52312786 0 0 Z " fill="#101010" transform="translate(0,31)"/>
<path d="M0 0 C1.75 1.0625 1.75 1.0625 3 3 C2.67 5.31 2.34 7.62 2 10 C-10.21 10 -22.42 10 -35 10 C-35 8.68 -35 7.36 -35 6 C-38.96 6 -42.92 6 -47 6 C-47.66 4.68 -48.32 3.36 -49 2 C-23 2 -23 2 -19 3 C-16.07422721 3.12724665 -16.07422721 3.12724665 -13.625 2.375 C-10.47613348 1.92516193 -8.82252234 2.62906058 -6 4 C-5.67 3.01 -5.34 2.02 -5 1 C-3 0 -3 0 0 0 Z " fill="#D4D4D4" transform="translate(57,30)"/>
<path d="M0 0 C0 1.98 0 3.96 0 6 C2.97 6.495 2.97 6.495 6 7 C6.33 8.32 6.66 9.64 7 11 C6.01 11.33 5.02 11.66 4 12 C6.475 12.495 6.475 12.495 9 13 C9 13.99 9 14.98 9 16 C2.02684666 17.03305975 -4.66509991 17.80094005 -11 14 C-10.67 14.99 -10.34 15.98 -10 17 C-10.99 16.67 -11.98 16.34 -13 16 C-13.33 15.34 -13.66 14.68 -14 14 C-14.99 13.34 -15.98 12.68 -17 12 C-15.02 11.67 -13.04 11.34 -11 11 C-11.33 10.01 -11.66 9.02 -12 8 C-12.33 8.99 -12.66 9.98 -13 11 C-13.66 11 -14.32 11 -15 11 C-15.66 10.01 -16.32 9.02 -17 8 C-17.99 7.34 -18.98 6.68 -20 6 C-17.69 6 -15.38 6 -13 6 C-13 4.02 -13 2.04 -13 0 C-8.38926889 -1.29676812 -4.66159911 -0.71109139 0 0 Z " fill="#E7E3E1" transform="translate(49,14)"/>
<path d="M0 0 C0.37125 0.639375 0.7425 1.27875 1.125 1.9375 C3.58052793 4.63858072 5.44578805 4.68407005 9 5 C7.68 5.33 6.36 5.66 5 6 C5.66 7.65 6.32 9.3 7 11 C8.98 10.67 10.96 10.34 13 10 C11.35 9.67 9.7 9.34 8 9 C8.33 8.34 8.66 7.68 9 7 C9.99 7.33 10.98 7.66 12 8 C12 7.01 12 6.02 12 5 C14.31 5 16.62 5 19 5 C17.68 5.33 16.36 5.66 15 6 C15 7.65 15 9.3 15 11 C15.845625 10.835 16.69125 10.67 17.5625 10.5 C21.12308058 9.98209737 24.40770293 9.79275209 28 10 C28.66 10.66 29.32 11.32 30 12 C28.68 12 27.36 12 26 12 C25.67 12.66 25.34 13.32 25 14 C25 13.34 25 12.68 25 12 C21.95551293 12.50741451 18.91271947 13.01571049 15.875 13.5625 C13 14 13 14 9 14 C9 14.66 9 15.32 9 16 C9.69867188 15.91621094 10.39734375 15.83242188 11.1171875 15.74609375 C12.02726563 15.64425781 12.93734375 15.54242188 13.875 15.4375 C14.77992187 15.33308594 15.68484375 15.22867188 16.6171875 15.12109375 C19 15 19 15 21 16 C21 17.32 21 18.64 21 20 C18.60225255 20.13572155 16.21224755 20.23436868 13.8125 20.3125 C12.80219727 20.3753418 12.80219727 20.3753418 11.77148438 20.43945312 C7.88558101 20.53423126 6.21396864 20.16959861 3.13671875 17.73046875 C0.06465755 13.80474521 -1.27975279 11.39019731 -1.1875 6.375 C-1.17783203 5.21097656 -1.17783203 5.21097656 -1.16796875 4.0234375 C-1 2 -1 2 0 0 Z " fill="#F5F3F2" transform="translate(1,20)"/>
<path d="M0 0 C1.65 0 3.3 0 5 0 C4.01 0.495 4.01 0.495 3 1 C3 1.66 3 2.32 3 3 C6.54518884 1.60240095 6.54518884 1.60240095 10 0 C12.99378339 -0.13305704 15.63057889 -0.08109244 18.5625 0.5625 C21.32695534 1.05868429 23.29996922 0.69429363 26 0 C26 0.99 26 1.98 26 3 C26.66 3.66 27.32 4.32 28 5 C26.68 5 25.36 5 24 5 C24.804375 5.268125 25.60875 5.53625 26.4375 5.8125 C27.283125 6.204375 28.12875 6.59625 29 7 C29.33 7.99 29.66 8.98 30 10 C24.65097076 10.59198743 19.39115154 11.14187241 14 11 C14 9.35 14 7.7 14 6 C13.01 5.67 12.02 5.34 11 5 C11 5.99 11 6.98 11 8 C9.68 8.33 8.36 8.66 7 9 C8.65 9 10.3 9 12 9 C12.33 9.66 12.66 10.32 13 11 C10.69 11 8.38 11 6 11 C5.62875 9.88625 5.62875 9.88625 5.25 8.75 C3.90634806 5.79396573 2.31013315 4.23312872 0 2 C0 1.34 0 0.68 0 0 Z " fill="#F6DDD6" transform="translate(2,20)"/>
<path d="M0 0 C-0.99 1.98 -1.98 3.96 -3 6 C-4.98 6 -6.96 6 -9 6 C-8.896875 6.928125 -8.79375 7.85625 -8.6875 8.8125 C-8.8421875 10.3903125 -8.8421875 10.3903125 -9 12 C-11.5 13.75 -11.5 13.75 -14 15 C-14 15.66 -14 16.32 -14 17 C-13.34 17.33 -12.68 17.66 -12 18 C-12.33 19.32 -12.66 20.64 -13 22 C-14.32 21.34 -15.64 20.68 -17 20 C-17.33 20.66 -17.66 21.32 -18 22 C-18.66 21.01 -19.32 20.02 -20 19 C-18.68 18.67 -17.36 18.34 -16 18 C-16.7425 17.3503125 -16.7425 17.3503125 -17.5 16.6875 C-19 15 -19 15 -19 12 C-18.34 12 -17.68 12 -17 12 C-17 11.01 -17 10.02 -17 9 C-18.32 8.67 -19.64 8.34 -21 8 C-21.33 6.35 -21.66 4.7 -22 3 C-15.08715353 -1.04654428 -7.74175497 -0.26901851 0 0 Z " fill="#FEFDFD" transform="translate(37,0)"/>
<path d="M0 0 C6.75 -0.125 6.75 -0.125 9 1 C9.625 3.0625 9.625 3.0625 10 5 C9.01 5.33 8.02 5.66 7 6 C9.475 6.495 9.475 6.495 12 7 C12 7.99 12 8.98 12 10 C5.02684666 11.03305975 -1.66509991 11.80094005 -8 8 C-7.67 8.99 -7.34 9.98 -7 11 C-7.99 10.67 -8.98 10.34 -10 10 C-10.33 9.34 -10.66 8.68 -11 8 C-11.99 7.34 -12.98 6.68 -14 6 C-13.14728516 6.03480469 -13.14728516 6.03480469 -12.27734375 6.0703125 C-7.07441352 6.19191688 -2.92687757 5.67723492 2 4 C1.34 2.68 0.68 1.36 0 0 Z " fill="#FCA081" transform="translate(46,20)"/>
<path d="M0 0 C3.70390021 2.02666238 5.65363011 3.48044516 8 7 C8 8.32 8 9.64 8 11 C6.35 11 4.7 11 3 11 C3 9.02 3 7.04 3 5 C-1.29 5 -5.58 5 -10 5 C-10 6.98 -10 8.96 -10 11 C-11.65 11 -13.3 11 -15 11 C-14.58534283 6.16233301 -12.5801385 4.14353624 -9 1 C-5.89046621 -0.5547669 -3.43733239 -0.28644437 0 0 Z " fill="#FEFEFE" transform="translate(46,9)"/>
<path d="M0 0 C1.6875 2 1.6875 2 3 4 C2.67 4.66 2.34 5.32 2 6 C-0.97 6 -3.94 6 -7 6 C-7 6.99 -7 7.98 -7 9 C-9.3125 9.1875 -9.3125 9.1875 -12 9 C-12.45375 8.505 -12.9075 8.01 -13.375 7.5 C-15.08407763 5.60131895 -15.08407763 5.60131895 -18.6875 5.8125 C-19.780625 5.874375 -20.87375 5.93625 -22 6 C-22.66 4.68 -23.32 3.36 -24 2 C-21.625 1.875 -21.625 1.875 -19 2 C-18.34 2.66 -17.68 3.32 -17 4 C-16.113125 3.62875 -15.22625 3.2575 -14.3125 2.875 C-10.59173995 1.89215772 -9.32561865 2.23937836 -6 4 C-5.67 3.01 -5.34 2.02 -5 1 C-3 0 -3 0 0 0 Z " fill="#D8D8D8" transform="translate(57,30)"/>
<path d="M0 0 C0.103125 0.639375 0.20625 1.27875 0.3125 1.9375 C0.539375 2.618125 0.76625 3.29875 1 4 C1.99 4.33 2.98 4.66 4 5 C4 5.99 4 6.98 4 8 C3.34 8 2.68 8 2 8 C2 8.99 2 9.98 2 11 C2.99 11.33 3.98 11.66 5 12 C5 12.66 5 13.32 5 14 C2.64561267 15.42944945 1.51967567 16.08661261 -1.25 15.625 C-1.8275 15.41875 -2.405 15.2125 -3 15 C-2.731875 14.13375 -2.46375 13.2675 -2.1875 12.375 C-1.98160412 8.66887413 -2.17846588 8.29015261 -4.4375 5.625 C-5.283125 4.75875 -6.12875 3.8925 -7 3 C-3.375 0 -3.375 0 0 0 Z " fill="#E4E4E4" transform="translate(16,4)"/>
<path d="M0 0 C1.9996441 0.03772913 4.00054061 0.04649906 6 0 C6.33 1.32 6.66 2.64 7 4 C0.73 4 -5.54 4 -12 4 C-12.33 3.01 -12.66 2.02 -13 1 C-8.12008519 -0.40607715 -4.97328834 -1.30876009 0 0 Z " fill="#F3F3F3" transform="translate(38,35)"/>
<path d="M0 0 C1.65 0 3.3 0 5 0 C4.01 0.495 4.01 0.495 3 1 C3 1.66 3 2.32 3 3 C3.78375 2.67 4.5675 2.34 5.375 2 C8 1 8 1 10 1 C11.625 3 11.625 3 13 5 C12.34 5 11.68 5 11 5 C11 5.99 11 6.98 11 8 C9.68 8.33 8.36 8.66 7 9 C8.65 9 10.3 9 12 9 C12.33 9.66 12.66 10.32 13 11 C10.69 11 8.38 11 6 11 C5.62875 9.88625 5.62875 9.88625 5.25 8.75 C3.90634806 5.79396573 2.31013315 4.23312872 0 2 C0 1.34 0 0.68 0 0 Z " fill="#F2A28A" transform="translate(2,20)"/>
<path d="M0 0 C1.6875 2 1.6875 2 3 4 C2.67 4.66 2.34 5.32 2 6 C-2.29 5.67 -6.58 5.34 -11 5 C-11 4.01 -11 3.02 -11 2 C-8.525 2.99 -8.525 2.99 -6 4 C-5.67 3.01 -5.34 2.02 -5 1 C-3 0 -3 0 0 0 Z " fill="#AEAFAF" transform="translate(57,30)"/>
<path d="M0 0 C0 0.99 0 1.98 0 3 C-3.3 3 -6.6 3 -10 3 C-10 2.01 -10 1.02 -10 0 C-6.30458414 -0.95024979 -3.69541586 -0.95024979 0 0 Z " fill="#FEFEFE" transform="translate(22,36)"/>
<path d="M0 0 C8.375 0 8.375 0 12 2 C8.3558226 4.4294516 6.28758728 4.16179575 2 4 C1.34 2.68 0.68 1.36 0 0 Z " fill="#6D6D6D" transform="translate(8,32)"/>
<path d="M0 0 C2.9375 0.75 2.9375 0.75 6 2 C6.875 4.125 6.875 4.125 7 6 C5.35 6.66 3.7 7.32 2 8 C1.67 7.01 1.34 6.02 1 5 C0.34 4.67 -0.32 4.34 -1 4 C-0.01 4 0.98 4 2 4 C1.34 2.68 0.68 1.36 0 0 Z " fill="#E6D8D4" transform="translate(30,26)"/>
<path d="M0 0 C6.75 -0.125 6.75 -0.125 9 1 C9 1.99 9 2.98 9 4 C6.69 4.33 4.38 4.66 2 5 C1.34 3.35 0.68 1.7 0 0 Z " fill="#F97144" transform="translate(49,26)"/>
<path d="M0 0 C0.33 0.99 0.66 1.98 1 3 C0.67 3.66 0.34 4.32 0 5 C-2.97 5 -5.94 5 -9 5 C-9 4.01 -9 3.02 -9 2 C-5.62182575 1.15545644 -3.32534757 0.89155081 0 2 C0 1.34 0 0.68 0 0 Z " fill="#FCFCFC" transform="translate(59,34)"/>
<path d="M0 0 C0.37125 0.639375 0.7425 1.27875 1.125 1.9375 C3.58052793 4.63858072 5.44578805 4.68407005 9 5 C7.68 5.33 6.36 5.66 5 6 C5.33 6.99 5.66 7.98 6 9 C4.68 9 3.36 9 2 9 C2 8.01 2 7.02 2 6 C1.01 6 0.02 6 -1 6 C-0.67 4.02 -0.34 2.04 0 0 Z " fill="#E5E1E0" transform="translate(1,20)"/>
<path d="M0 0 C1.98 0 3.96 0 6 0 C6.66 1.32 7.32 2.64 8 4 C5.6875 4.625 5.6875 4.625 3 5 C2.01 4.34 1.02 3.68 0 3 C0 2.01 0 1.02 0 0 Z " fill="#F87142" transform="translate(12,20)"/>
<path d="M0 0 C2.64 0 5.28 0 8 0 C8.33 1.32 8.66 2.64 9 4 C5.7 4 2.4 4 -1 4 C-0.67 2.68 -0.34 1.36 0 0 Z " fill="#EAEAEA" transform="translate(36,35)"/>
<path d="M0 0 C2.31 0 4.62 0 7 0 C7.66 1.32 8.32 2.64 9 4 C6.69 4.33 4.38 4.66 2 5 C1.34 3.35 0.68 1.7 0 0 Z " fill="#FA6F3F" transform="translate(23,26)"/>
<path d="M0 0 C4.62 0 9.24 0 14 0 C13.01 0.33 12.02 0.66 11 1 C11.33 1.99 11.66 2.98 12 4 C10.02 3.34 8.04 2.68 6 2 C6.33 2.99 6.66 3.98 7 5 C6.01 4.67 5.02 4.34 4 4 C3.67 3.34 3.34 2.68 3 2 C2.01 1.34 1.02 0.68 0 0 Z " fill="#FC5D23" transform="translate(32,26)"/>
<path d="M0 0 C1.65 0 3.3 0 5 0 C4.01 0.495 4.01 0.495 3 1 C3 1.66 3 2.32 3 3 C4.65 2.34 6.3 1.68 8 1 C8.33 2.32 8.66 3.64 9 5 C6.69 5 4.38 5 2 5 C1.34 3.35 0.68 1.7 0 0 Z " fill="#FB642F" transform="translate(2,20)"/>
<path d="M0 0 C0.33 0.66 0.66 1.32 1 2 C1.66 2 2.32 2 3 2 C3 2.99 3 3.98 3 5 C6.3 5 9.6 5 13 5 C13 5.33 13 5.66 13 6 C8.05 6 3.1 6 -2 6 C-1.34 5.67 -0.68 5.34 0 5 C-0.2784375 4.0409375 -0.2784375 4.0409375 -0.5625 3.0625 C-0.7790625 2.0415625 -0.7790625 2.0415625 -1 1 C-0.67 0.67 -0.34 0.34 0 0 Z " fill="#D6D6D6" transform="translate(9,34)"/>
<path d="M0 0 C0.66 0.99 1.32 1.98 2 3 C-1.96 3 -5.92 3 -10 3 C-10 2.34 -10 1.68 -10 1 C-6.457201 -0.180933 -3.71640139 -0.27028374 0 0 Z " fill="#515151" transform="translate(31,32)"/>
<path d="M0 0 C2.31 0 4.62 0 7 0 C7.66 1.65 8.32 3.3 9 5 C6.69 5 4.38 5 2 5 C1.34 3.35 0.68 1.7 0 0 Z " fill="#FB5C21" transform="translate(38,20)"/>
<path d="M0 0 C0.86625 0.2784375 0.86625 0.2784375 1.75 0.5625 C4.20692525 1.04023546 5.64397534 0.75729364 8 0 C8 0.99 8 1.98 8 3 C8.66 3.66 9.32 4.32 10 5 C7.83125748 4.49396008 6.00032373 4.00016187 4 3 C4 3.66 4 4.32 4 5 C3.34 5 2.68 5 2 5 C1.34 3.35 0.68 1.7 0 0 Z " fill="#FC5D21" transform="translate(20,20)"/>
<path d="M0 0 C0.99 0.33 1.98 0.66 3 1 C2.34 1 1.68 1 1 1 C1 1.66 1 2.32 1 3 C1.99 2.67 2.98 2.34 4 2 C4.99 2.66 5.98 3.32 7 4 C6.67 4.99 6.34 5.98 6 7 C4.68 7 3.36 7 2 7 C2 6.01 2 5.02 2 4 C1.34 4 0.68 4 0 4 C-0.33 3.01 -0.66 2.02 -1 1 C-0.67 0.67 -0.34 0.34 0 0 Z " fill="#CECECE" transform="translate(20,32)"/>
<path d="M0 0 C3.24208567 0.35049575 4.61527704 0.56221181 6.8125 3.0625 C7.204375 3.701875 7.59625 4.34125 8 5 C5.36 5 2.72 5 0 5 C0 3.35 0 1.7 0 0 Z " fill="#FC5C26" transform="translate(16,26)"/>
<path d="M0 0 C2.375 -0.125 2.375 -0.125 5 0 C5.66 0.66 6.32 1.32 7 2 C9.10820797 1.6814823 9.10820797 1.6814823 11 1 C11.33 1.66 11.66 2.32 12 3 C10.56465159 3.2226746 9.12654475 3.42761906 7.6875 3.625 C6.88699219 3.74101563 6.08648437 3.85703125 5.26171875 3.9765625 C3 4 3 4 0 2 C0 1.34 0 0.68 0 0 Z " fill="#565656" transform="translate(33,32)"/>
<path d="M0 0 C2.31 0 4.62 0 7 0 C5.68 0.33 4.36 0.66 3 1 C3 1.99 3 2.98 3 4 C0.69 4 -1.62 4 -4 4 C-3.67 3.34 -3.34 2.68 -3 2 C-2.01 2.33 -1.02 2.66 0 3 C0 2.01 0 1.02 0 0 Z " fill="#FCFCFC" transform="translate(13,25)"/>
<path d="M0 0 C1.98 0.66 3.96 1.32 6 2 C6 1.34 6 0.68 6 0 C7.9375 0.375 7.9375 0.375 10 1 C10.33 1.66 10.66 2.32 11 3 C7.7 3 4.4 3 1 3 C0.67 2.01 0.34 1.02 0 0 Z " fill="#555555" transform="translate(45,32)"/>
<path d="M0 0 C0.99 0.33 1.98 0.66 3 1 C3 1.66 3 2.32 3 3 C3.66 3 4.32 3 5 3 C4.67 2.01 4.34 1.02 4 0 C4.66 0 5.32 0 6 0 C6.66 1.32 7.32 2.64 8 4 C5.69 4 3.38 4 1 4 C0.67 2.68 0.34 1.36 0 0 Z " fill="#FAF5F3" transform="translate(31,22)"/>
<path d="M0 0 C2.64 0 5.28 0 8 0 C7.67 1.65 7.34 3.3 7 5 C6.34 5 5.68 5 5 5 C4.34 4.01 3.68 3.02 3 2 C2.01 1.34 1.02 0.68 0 0 Z " fill="#FC6935" transform="translate(29,20)"/>
<path d="M0 0 C2.31 0 4.62 0 7 0 C6.01 0.33 5.02 0.66 4 1 C4.33 2.32 4.66 3.64 5 5 C2 4 2 4 0.8125 1.9375 C0.544375 1.298125 0.27625 0.65875 0 0 Z " fill="#FB6935" transform="translate(46,20)"/>
</svg>
